<?xml version="1.0" encoding="utf-8"?>
<!-- Generator: Adobe Illustrator 26.0.1, SVG Export Plug-In . SVG Version: 6.00 Build 0)  -->
<svg version="1.1" id="Layer_1" xmlns="http://www.w3.org/2000/svg" xmlns:xlink="http://www.w3.org/1999/xlink" x="0px" y="0px"
	 viewBox="10 10 800.0 250.0" style="enable-background:new 10 10 800.0 250.0;" xml:space="preserve">
<style type="text/css">
	.st0{fill:#C30800;}
	.st1{fill:#415266;}
	.st2{fill:none;}
	.st3{fill:#415266;fill-opacity:0.6118;}
	.st4{fill:#415266;fill-opacity:0.8588;}
	.st5{fill:#415266;fill-opacity:0.502;}
	.st6{fill:#415266;fill-opacity:0.6902;}
</style>
<g>
	<path class="st0" d="M283.5,86.4c-0.6-7.9-2.3-13-6.2-18.1c-7-9.3-18.4-14.5-32.1-14.5c-25.9,0-42,18.5-42,48.2
		c0,29.6,16,48,41.5,48c22.9,0,38-13.2,39.1-34.2h-18.4c-1.3,11.7-8.6,18.4-20.3,18.4c-14.6,0-23.2-11.8-23.2-31.8
		c0-20.3,8.9-32.3,23.8-32.3c11,0,17.1,5.3,19.6,16.5H283.5z"/>
	<path class="st0" d="M339.2,79.1l-14.1,49.5l-15-49.5h-19.4l25.3,70.7c0,7-4.4,11.8-11,11.8c-1.4,0-2.5-0.3-4.7-0.8v13.2
		c2.6,0.4,4.2,0.5,6.3,0.5c4.5,0,9.6-0.9,12.7-2.1c4.9-2,7-4.8,9.9-13l27.9-80.4H339.2z"/>
	<path class="st0" d="M388.5,55.3h-18.9V147h62.8v-15.7h-43.9V55.3z"/>
	<path class="st0" d="M461.1,79.1h-17.6v68h17.6V79.1z M461.1,55.3h-17.6V71h17.6V55.3z"/>
	<path class="st0" d="M478,79.1v68h17.6v-40.8c0-8.1,5.5-13.3,14.2-13.3c7.6,0,11.3,4.2,11.3,12.2V147h17.6v-45.6
		c0-15.1-8.2-23.5-22.8-23.5c-9.2,0-15.4,3.3-20.4,11v-9.8H478z"/>
	<path class="st0" d="M584.9,80.5H575V62.2h-17.6v18.3h-8.7v11.7h8.7V134c0,10.7,5.7,16,17.2,16c4,0,6.9-0.4,10.2-1.4v-12.3
		c-1.8,0.3-2.6,0.4-4,0.4c-4.7,0-5.8-1.4-5.8-7.4v-37h9.8V80.5z"/>
	<path class="st0" d="M654.3,118.6c0.1-1.5,0.1-2.1,0.1-3c0-6.8-1-13.1-2.6-17.9c-4.5-12.3-15.5-19.8-29.2-19.8
		c-19.5,0-31.5,14.1-31.5,36.9c0,21.8,11.8,35.1,31.1,35.1c15.2,0,27.6-8.6,31.5-22h-17.4c-2.1,5.4-7,8.6-13.5,8.6
		c-5,0-9.1-2.1-11.6-5.9c-1.6-2.5-2.3-5.5-2.5-12H654.3z M609,106.9c1.1-10.4,5.5-15.5,13.3-15.5c8.1,0,12.8,5.4,13.7,15.5H609z"/>
	<path class="st0" d="M666.3,79.1v68h17.6v-36.1c0-10.3,5.2-15.5,15.5-15.5c1.9,0,3.1,0.1,5.5,0.5V78.1c-1-0.1-1.4-0.1-2.1-0.1
		c-8.1,0-15,5.3-18.9,14.5V79.1H666.3z"/>
</g>
<g>
	<path class="st1" d="M227.4,195.9h-4v19.7h4V195.9z"/>
	<path class="st1" d="M235,200.2l3.5,15.3h4l3.5-15.3v15.3h4.1v-19.7H244l-3.5,15.6l-3.6-15.6h-6v19.7h4.1V200.2z"/>
	<path class="st1" d="M265.1,211.6l1.3,4h4.2l-6.8-19.7h-4.5l-7,19.7h4.1l1.3-4H265.1z M264,208.2h-5.1l2.6-7.7L264,208.2z"/>
	<path class="st1" d="M289.2,205h-7.9v3.4h4.5c-0.1,1.1-0.4,1.8-1,2.5c-1,1.2-2.5,1.9-4,1.9c-3.3,0-5.6-2.9-5.6-6.9
		c0-4.2,2-6.8,5.5-6.8c1.4,0,2.6,0.4,3.5,1.2c0.6,0.5,0.9,0.9,1.2,2h3.8c-0.5-4.1-3.8-6.6-8.5-6.6c-5.7,0-9.5,4.2-9.5,10.3
		c0,6,3.9,10.3,9.2,10.3c2.7,0,4.4-0.9,5.9-3.2l0.5,2.6h2.4V205z"/>
	<path class="st1" d="M297.2,207.1h9.4v-3.4h-9.4v-4.5h10.2v-3.4h-14.2v19.7h14.7v-3.4h-10.7V207.1z"/>
	<path class="st1" d="M332.9,201.9c0-4.1-2.8-6.3-7.7-6.3c-4.7,0-7.4,2.2-7.4,6c0,3,1.5,4.5,5.5,5.3l2.8,0.5
		c2.7,0.5,3.7,1.3,3.7,2.9c0,1.6-1.5,2.6-4,2.6c-2.8,0-4.3-1.2-4.4-3.3h-3.9c0.2,4.2,3.1,6.5,8.2,6.5c5.1,0,8.1-2.4,8.1-6.4
		c0-3.1-1.6-4.7-5.2-5.4l-3.1-0.6c-2.9-0.6-3.7-1.1-3.7-2.6c0-1.5,1.3-2.4,3.4-2.4c2.5,0,4,1.1,4.1,3.1H332.9z"/>
	<path class="st1" d="M340.7,207.1h9.4v-3.4h-9.4v-4.5h10.2v-3.4h-14.2v19.7h14.7v-3.4h-10.7V207.1z"/>
	<path class="st1" d="M371.7,205h-7.9v3.4h4.5c-0.1,1.1-0.4,1.8-1,2.5c-1,1.2-2.5,1.9-4,1.9c-3.3,0-5.6-2.9-5.6-6.9
		c0-4.2,2-6.8,5.5-6.8c1.4,0,2.6,0.4,3.5,1.2c0.6,0.5,0.9,0.9,1.2,2h3.8c-0.5-4.1-3.8-6.6-8.5-6.6c-5.7,0-9.5,4.2-9.5,10.3
		c0,6,3.9,10.3,9.2,10.3c2.7,0,4.4-0.9,5.9-3.2l0.5,2.6h2.4V205z"/>
	<path class="st1" d="M379.3,200.2l3.5,15.3h4l3.5-15.3v15.3h4.1v-19.7h-6.1l-3.5,15.6l-3.6-15.6h-6v19.7h4.1V200.2z"/>
	<path class="st1" d="M402.1,207.1h9.4v-3.4h-9.4v-4.5h10.2v-3.4h-14.2v19.7h14.7v-3.4h-10.7V207.1z"/>
	<path class="st1" d="M427.7,215.6h4.1v-19.7h-4.1v13.4l-7.8-13.4h-4.2v19.7h4.1V202L427.7,215.6z"/>
	<path class="st1" d="M443.8,199.3h5.7v-3.4h-15.8v3.4h6v16.3h4.1V199.3z"/>
	<path class="st1" d="M461.1,211.6l1.3,4h4.2l-6.8-19.7h-4.5l-7,19.7h4.1l1.3-4H461.1z M460,208.2h-5.1l2.6-7.7L460,208.2z"/>
	<path class="st1" d="M475.2,199.3h5.7v-3.4h-15.8v3.4h6v16.3h4.1V199.3z"/>
	<path class="st1" d="M487,195.9h-4v19.7h4V195.9z"/>
	<path class="st1" d="M499.3,195.6c-2.8,0-5,0.9-6.7,2.7c-1.7,1.9-2.8,4.6-2.8,7.6c0,2.9,1,5.7,2.8,7.6c1.7,1.8,3.9,2.7,6.7,2.7
		c2.8,0,5-0.9,6.7-2.7c1.7-1.8,2.8-4.7,2.8-7.5c0-3.1-1-5.8-2.8-7.7C504.3,196.4,502.2,195.6,499.3,195.6z M499.3,199
		c3.3,0,5.4,2.7,5.4,7c0,4-2.2,6.7-5.4,6.7c-3.3,0-5.4-2.7-5.4-6.9C493.9,201.7,496.1,199,499.3,199z"/>
	<path class="st1" d="M523.6,215.6h4.1v-19.7h-4.1v13.4l-7.8-13.4h-4.2v19.7h4.1V202L523.6,215.6z"/>
	<path class="st1" d="M542.8,207.1h8.6v-3.4h-8.6v-4.5h9.8v-3.4h-13.8v19.7h4.1V207.1z"/>
	<path class="st1" d="M559,195.9h-4v19.7h4V195.9z"/>
	<path class="st1" d="M567,195.9h-4.1v19.7h13.5v-3.4H567V195.9z"/>
	<path class="st1" d="M585.1,199.3h5.7v-3.4H575v3.4h6v16.3h4.1V199.3z"/>
	<path class="st1" d="M597.1,207.1h9.4v-3.4h-9.4v-4.5h10.2v-3.4h-14.2v19.7h14.7v-3.4h-10.7V207.1z"/>
	<path class="st1" d="M615.2,207.8h4.6c1.7,0,2.5,0.7,2.5,2.3v0.8c0,0.5,0,1,0,1.3c0,1.9,0.1,2.4,0.6,3.4h4.3v-0.7
		c-0.6-0.3-0.9-0.8-0.9-1.6c-0.1-5.8-0.2-6.1-2.7-7.2c2.2-0.9,3.3-2.4,3.3-4.9c0-1.6-0.5-3-1.5-4c-0.9-0.9-2.1-1.3-3.8-1.3h-10.5
		v19.7h4.1V207.8z M615.2,204.4v-5.1h4.9c1.2,0,1.6,0.1,2.1,0.5c0.5,0.4,0.7,1.1,0.7,2c0,0.9-0.2,1.7-0.7,2.1
		c-0.5,0.4-1,0.5-2.1,0.5H615.2z"/>
</g>
<g>
	<path class="st2" d="M182.7,112c-15.6,0-28.3-12.8-28.3-28.6c0-7.7,3-14.7,7.9-19.8c-0.7-0.6-1.3-1.3-2-1.9c-1.7,3.1-5,5.2-8.8,5.2
		c-5.5,0-10-4.5-10-10.1c0-2.5,0.9-4.7,2.3-6.5c-1.8-0.9-3.7-1.8-5.7-2.6c0.3,1.1,0.4,2.2,0.4,3.3c0,7.1-5.7,12.8-12.7,12.8
		c-7,0-12.7-5.7-12.7-12.8c0-3.2,1.2-6.1,3.1-8.3c-1.7-0.1-3.5-0.2-5.3-0.2c-11.2,0-21.9,2.6-31.4,7.1c0.3,1.2,0.5,2.5,0.5,3.8
		c0,8.3-6.7,15-14.9,15c-2.9,0-5.6-0.9-7.9-2.3c-2.7,2.9-5.2,6.1-7.4,9.4c5.5,1.8,9.5,7,9.5,13.1c0,7.6-6.1,13.7-13.6,13.7
		c-2.4,0-4.6-0.6-6.5-1.7c-1.1,5.1-1.7,10.4-1.7,15.8c0,6,0.7,11.8,2,17.4c1.2-5.9,6.4-10.3,12.6-10.3c7.1,0,12.9,5.8,12.9,13
		c0,7.2-5.8,13-12.9,13c-3.2,0-6.1-1.2-8.4-3.1c2,4.5,4.4,8.7,7.1,12.7c1.9-6.8,8.1-11.7,15.4-11.7c8.9,0,16,7.3,16,16.2
		c0,7.1-4.6,13.2-10.9,15.3c3.1,2,6.4,3.8,9.8,5.3c-1-1.3-1.6-2.9-1.6-4.7c0-4.2,3.4-7.7,7.6-7.7c4.2,0,7.6,3.4,7.6,7.7
		c0,3.7-2.6,6.8-6.1,7.5c2.7,0.9,5.5,1.6,8.3,2.1c1-6.2,6.3-10.9,12.6-10.9c6.5,0,11.9,4.9,12.7,11.2c26.4-4.2,48-22.6,57.1-47.2
		c-3.4,4-8.5,6.5-14.1,6.5c-10.3,0-18.7-8.5-18.7-18.9c0-10.5,8.4-18.9,18.7-18.9c8.8,0,16.2,6.1,18.2,14.4c0.4-2.9,0.5-5.9,0.5-9
		c0-1.6-0.1-3.1-0.1-4.6C183.7,112,183.2,112,182.7,112z M133,65.3c10.2,0,18.4,8.3,18.4,18.6c0,10.3-8.3,18.6-18.4,18.6
		c-10.2,0-18.4-8.3-18.4-18.6C114.5,73.7,122.8,65.3,133,65.3z M106,97.6c-4.1,0-7.4-3.3-7.4-7.5c0-4.1,3.3-7.5,7.4-7.5
		c4.1,0,7.4,3.3,7.4,7.5C113.4,94.3,110.1,97.6,106,97.6z M106.6,110c0,8.7-6.9,15.7-15.5,15.7c-8.6,0-15.5-7-15.5-15.7
		c0-8.7,6.9-15.7,15.5-15.7C99.7,94.3,106.6,101.3,106.6,110z M120.8,101.6c7.2,0,13,5.9,13,13.1c0,7.2-5.8,13.1-13,13.1
		c-7.2,0-13-5.9-13-13.1C107.8,107.4,113.6,101.6,120.8,101.6z M136.7,123.6c5,0,9,4.1,9,9.1c0,5-4,9.1-9,9.1c-5,0-9-4.1-9-9.1
		C127.7,127.7,131.8,123.6,136.7,123.6z M99.3,49.6c9.1,0,16.5,7.5,16.5,16.7S108.5,83,99.3,83c-9.1,0-16.5-7.5-16.5-16.7
		S90.2,49.6,99.3,49.6z M73.3,71c7,0,12.6,5.7,12.6,12.7c0,7-5.6,12.7-12.6,12.7c-7,0-12.6-5.7-12.6-12.7C60.7,76.7,66.3,71,73.3,71
		z M73.6,103.3c0,2.5-2,4.6-4.5,4.6c-2.5,0-4.5-2.1-4.5-4.6c0-2.5,2-4.6,4.5-4.6C71.5,98.8,73.6,100.8,73.6,103.3z M51.5,121.7
		c-5.4,0-9.7-4.4-9.7-9.8c0-5.4,4.4-9.8,9.7-9.8c5.4,0,9.7,4.4,9.7,9.8C61.3,117.3,56.9,121.7,51.5,121.7z M60.5,120.4
		c0-4.4,3.5-7.9,7.8-7.9c4.3,0,7.8,3.5,7.8,7.9c0,4.4-3.5,7.9-7.8,7.9C64,128.3,60.5,124.7,60.5,120.4z M75.1,146.3
		c-4.6,0-8.3-3.7-8.3-8.4c0-4.6,3.7-8.4,8.3-8.4c4.6,0,8.3,3.7,8.3,8.4C83.4,142.5,79.7,146.3,75.1,146.3z M107.8,177
		c-13.4,0-24.3-11-24.3-24.5c0-13.6,10.9-24.5,24.3-24.5c5.9,0,11.3,2.1,15.5,5.6c5.4,4.4,8.8,11.2,8.8,18.8c0,0,0,0,0,0.1
		c0,0,0,0,0,0.1C132.1,166,121.2,177,107.8,177z M132.5,186.7c-4.5,0-8.1-3.7-8.1-8.2c0-4.5,3.6-8.2,8.1-8.2c4.5,0,8.1,3.7,8.1,8.2
		C140.6,183,137,186.7,132.5,186.7z M147.7,145.4c7.6,0,13.8,6.3,13.8,14c0,7.7-6.2,14-13.8,14c-7.6,0-13.8-6.3-13.8-14
		C133.9,151.7,140.1,145.4,147.7,145.4z M145.4,118.7c-4.2,0-7.7-3.5-7.7-7.8c0-4.3,3.4-7.8,7.7-7.8c4.2,0,7.7,3.5,7.7,7.8
		C153.1,115.2,149.6,118.7,145.4,118.7z"/>
	<path class="st1" d="M132.1,152.3C132.1,152.3,132.1,152.3,132.1,152.3c0-7.7-3.4-14.4-8.8-18.9C128.7,138,132.1,144.8,132.1,152.3
		z"/>
	<path class="st1" d="M91.1,94.3c-8.6,0-15.5,7-15.5,15.7c0,8.7,6.9,15.7,15.5,15.7c8.6,0,15.5-7,15.5-15.7
		C106.6,101.3,99.7,94.3,91.1,94.3z"/>
	<path class="st1" d="M133,102.6c10.2,0,18.4-8.3,18.4-18.6c0-10.3-8.3-18.6-18.4-18.6c-10.2,0-18.4,8.3-18.4,18.6
		C114.5,94.2,122.8,102.6,133,102.6z"/>
	<path class="st1" d="M73.3,96.4c7,0,12.6-5.7,12.6-12.7c0-7-5.6-12.7-12.6-12.7c-7,0-12.6,5.7-12.6,12.7
		C60.7,90.7,66.3,96.4,73.3,96.4z"/>
	<path class="st3" d="M120.8,127.7c7.2,0,13-5.9,13-13.1c0-7.2-5.8-13.1-13-13.1c-7.2,0-13,5.9-13,13.1
		C107.8,121.9,113.6,127.7,120.8,127.7z"/>
	<path class="st1" d="M145.4,103.2c-4.2,0-7.7,3.5-7.7,7.8c0,4.3,3.4,7.8,7.7,7.8c4.2,0,7.7-3.5,7.7-7.8
		C153.1,106.6,149.6,103.2,145.4,103.2z"/>
	<path class="st4" d="M113.4,90.1c0-4.1-3.3-7.5-7.4-7.5c-4.1,0-7.4,3.3-7.4,7.5c0,4.1,3.3,7.5,7.4,7.5
		C110.1,97.6,113.4,94.3,113.4,90.1z"/>
	<path class="st1" d="M136.7,141.8c5,0,9-4.1,9-9.1c0-5-4-9.1-9-9.1c-5,0-9,4.1-9,9.1C127.7,137.8,131.8,141.8,136.7,141.8z"/>
	<path class="st1" d="M133.9,159.4c0,7.7,6.2,14,13.8,14c7.6,0,13.8-6.3,13.8-14c0-7.7-6.2-14-13.8-14
		C140.1,145.4,133.9,151.7,133.9,159.4z"/>
	<path class="st1" d="M132.5,170.3c-4.5,0-8.1,3.7-8.1,8.2c0,4.5,3.6,8.2,8.1,8.2c4.5,0,8.1-3.7,8.1-8.2
		C140.6,173.9,137,170.3,132.5,170.3z"/>
	<path class="st3" d="M75.1,129.6c-4.6,0-8.3,3.7-8.3,8.4c0,4.6,3.7,8.4,8.3,8.4c4.6,0,8.3-3.7,8.3-8.4
		C83.4,133.3,79.7,129.6,75.1,129.6z"/>
	<path class="st1" d="M76.2,120.4c0-4.4-3.5-7.9-7.8-7.9c-4.3,0-7.8,3.5-7.8,7.9c0,4.4,3.5,7.9,7.8,7.9
		C72.7,128.3,76.2,124.7,76.2,120.4z"/>
	<path class="st1" d="M69,98.8c-2.5,0-4.5,2.1-4.5,4.6c0,2.5,2,4.6,4.5,4.6c2.5,0,4.5-2.1,4.5-4.6C73.6,100.8,71.5,98.8,69,98.8z"/>
	<path class="st1" d="M51.5,102.1c-5.4,0-9.7,4.4-9.7,9.8c0,5.4,4.4,9.8,9.7,9.8c5.4,0,9.7-4.4,9.7-9.8
		C61.3,106.5,56.9,102.1,51.5,102.1z"/>
	<path class="st1" d="M65.2,136.7c0-7.2-5.8-13-12.9-13c-6.2,0-11.4,4.4-12.6,10.3c1,4.4,2.5,8.6,4.2,12.6c2.3,2,5.2,3.1,8.4,3.1
		C59.4,149.7,65.2,143.9,65.2,136.7z"/>
	<path class="st1" d="M59.5,88.7c0-6.2-4-11.4-9.5-13.1c-5,7.5-8.6,16.1-10.6,25.2c1.9,1.1,4.2,1.7,6.5,1.7
		C53.4,102.4,59.5,96.3,59.5,88.7z"/>
	<path class="st1" d="M80.1,53.5c0-1.3-0.2-2.6-0.5-3.8c-8.4,4-16,9.7-22.3,16.5c2.3,1.5,5,2.3,7.9,2.3
		C73.5,68.5,80.1,61.8,80.1,53.5z"/>
	<path class="st3" d="M99.3,83c9.1,0,16.5-7.5,16.5-16.7s-7.4-16.7-16.5-16.7c-9.1,0-16.5,7.5-16.5,16.7S90.2,83,99.3,83z"/>
	<path class="st1" d="M125.9,63.9c7,0,12.7-5.7,12.7-12.8c0-1.1-0.2-2.2-0.4-3.3c-6.8-2.7-14.2-4.5-21.8-5c-1.9,2.2-3.1,5.1-3.1,8.3
		C113.2,58.1,118.9,63.9,125.9,63.9z"/>
	<path class="st1" d="M151.5,66.9c3.8,0,7-2.1,8.8-5.2c-4.9-4.5-10.5-8.4-16.5-11.4c-1.4,1.8-2.3,4-2.3,6.5
		C141.5,62.4,146,66.9,151.5,66.9z"/>
	<path class="st5" d="M182.7,112c0.5,0,1,0,1.5,0c-1.2-18.9-9.4-35.9-22-48.4c-4.9,5.1-7.9,12.1-7.9,19.8
		C154.4,99.2,167.1,112,182.7,112z"/>
	<path class="st1" d="M132.1,152.4C132.1,152.4,132.1,152.4,132.1,152.4c0-7.7-3.5-14.4-8.8-18.9c-4.2-3.5-9.6-5.6-15.5-5.6
		c-13.4,0-24.3,11-24.3,24.5c0,13.6,10.9,24.5,24.3,24.5C121.2,177,132.1,166,132.1,152.4z"/>
	<path class="st1" d="M82.5,163.8c0-8.9-7.2-16.2-16-16.2c-7.3,0-13.5,4.9-15.4,11.7c5.5,7.9,12.5,14.6,20.5,19.8
		C77.9,176.9,82.5,170.9,82.5,163.8z"/>
	<path class="st1" d="M95.1,179.7c0-4.2-3.4-7.7-7.6-7.7c-4.2,0-7.6,3.4-7.6,7.7c0,1.8,0.6,3.4,1.6,4.7c2.4,1.1,5,2.1,7.5,2.9
		C92.4,186.6,95.1,183.5,95.1,179.7z"/>
	<path class="st1" d="M165.6,111.2c-10.3,0-18.7,8.5-18.7,18.9c0,10.5,8.4,18.9,18.7,18.9c5.6,0,10.7-2.5,14.1-6.5
		c2-5.4,3.4-11,4.1-16.9C181.8,117.3,174.5,111.2,165.6,111.2z"/>
	<path class="st6" d="M109.9,178.5c-6.4,0-11.6,4.7-12.6,10.9c4.4,0.9,9,1.3,13.7,1.3c3.9,0,7.8-0.3,11.6-0.9
		C121.8,183.4,116.4,178.5,109.9,178.5z"/>
</g>
</svg>
