<?xml version="1.0" encoding="UTF-8" standalone="no"?>
<!DOCTYPE svg PUBLIC "-//W3C//DTD SVG 1.1//EN" "http://www.w3.org/Graphics/SVG/1.1/DTD/svg11.dtd">
<!--Generated by Intaglio, www.PurgatoryDesign.com-->
<svg version="1.1" viewBox="0,0,734,576" width="734" height="576" xmlns="http://www.w3.org/2000/svg" xmlns:xlink="http://www.w3.org/1999/xlink" xmlns:intaglio="http://purgatorydesign.com/namespaces/intaglio" intaglio:grid="36,36,1,1,0.5,#9999bf,1,0,0,0" intaglio:guides="0.8,#f0f,0,0"><path d="M105.95,113.792 C105.95,52.8792,145.868,3.5,195.11,3.5 L521.745,3.5 C570.987,3.5,610.905,52.8792,610.905,113.792 L610.905,444.666 C610.905,505.579,570.987,554.958,521.745,554.958 L195.11,554.958 C145.868,554.958,105.95,505.579,105.95,444.666 Z"/><g clip-path="url(#600003dd84d0)"><clipPath id="600003dd84d0"><path fill="#000" fill-opacity="0.35" d="M204.006,575.723 L614.369,575.723 L614.369,319.304 L204.006,319.304 Z"/></clipPath><image xlink:href="4.png" width="3360" height="2100" transform="matrix(0.121994,0,0,0.121883,204.006,319.304)"/></g><g clip-path="url(#600003ddeb50)"><clipPath id="600003ddeb50"><path fill="#000" fill-opacity="0.35" d="M-26,577.723 L390.391,577.723 L390.391,317.131 L-26,317.131 Z"/></clipPath><image xlink:href="3.png" width="3360" height="2100" transform="matrix(0.123788,0,0,0.123871,-26,317.131)"/></g><text fill="#fff" font-family="Helvetica" font-size="12" text-anchor="middle" transform="matrix(0.927374,0,0,0.927374,468.955,302.667)" xml:space="preserve"><tspan>Diverticulitis</tspan><tspan x="0" y="16">(core 39)</tspan></text><text fill="#fff" font-family="Helvetica" font-size="12" text-anchor="middle" transform="matrix(0.927374,0,0,0.927374,243.15,302.694)" xml:space="preserve"><tspan>Mesothelioma</tspan><tspan x="0" y="16">(core 33)</tspan></text><g clip-path="url(#600003ddecb0)"><clipPath id="600003ddecb0"><path fill="#000" fill-opacity="0.35" d="M212.109,314.668 L628.5,314.668 L628.5,54.0754 L212.109,54.0754 Z"/></clipPath><image xlink:href="2.png" width="3360" height="2100" transform="matrix(0.123788,0,0,0.123871,212.109,54.0754)"/></g><g clip-path="url(#600003dd8b00)"><clipPath id="600003dd8b00"><path fill="#000" fill-opacity="0.35" d="M-35.5,310.897 L408.249,310.897 L408.249,50.3045 L-35.5,50.3045 Z"/></clipPath><image xlink:href="1.png" width="3360" height="2100" transform="matrix(0.13193,0,0,0.123871,-35.5,50.3045)"/></g><text fill="#fff" font-family="Helvetica" font-size="12" text-anchor="middle" transform="matrix(0.927374,0,0,0.927374,243.136,42.756)" xml:space="preserve"><tspan>Lung squamous cell carcinoma</tspan><tspan x="0" y="16">(core 13)</tspan></text><text fill="#fff" font-family="Helvetica" font-size="12" text-anchor="middle" transform="matrix(0.927374,0,0,0.927374,468.898,42.756)" xml:space="preserve"><tspan>Lung squamous cell carcinoma</tspan><tspan x="0" y="16">(core 29)</tspan></text></svg>
