<?xml version="1.0" encoding="UTF-8" standalone="no"?>
<!DOCTYPE svg PUBLIC "-//W3C//DTD SVG 1.1//EN" "http://www.w3.org/Graphics/SVG/1.1/DTD/svg11.dtd">
<!--Generated by Intaglio, www.PurgatoryDesign.com-->
<svg version="1.1" viewBox="0,0,734,576" width="734" height="576" xmlns="http://www.w3.org/2000/svg" xmlns:xlink="http://www.w3.org/1999/xlink" xmlns:intaglio="http://purgatorydesign.com/namespaces/intaglio" intaglio:grid="36,36,1,1,0.5,#9999bf,1,0,0,0" intaglio:guides="0.8,#f0f,1,1"><g><g><path fill="#c30800" d="M279.75,174.395 C279.15,166.495,277.45,161.395,273.55,156.295 C266.55,146.995,255.15,141.795,241.45,141.795 C215.55,141.795,199.45,160.295,199.45,189.995 C199.45,219.595,215.45,237.995,240.95,237.995 C263.85,237.995,278.95,224.795,280.05,203.795 L261.65,203.795 C260.35,215.495,253.05,222.195,241.35,222.195 C226.75,222.195,218.15,210.395,218.15,190.395 C218.15,170.095,227.05,158.095,241.95,158.095 C252.95,158.095,259.05,163.395,261.55,174.595 L279.75,174.595 Z"/><path fill="#c30800" d="M335.45,167.095 L321.35,216.595 L306.35,167.095 L286.95,167.095 L312.25,237.795 C312.25,244.795,307.85,249.595,301.25,249.595 C299.85,249.595,298.75,249.295,296.55,248.795 L296.55,261.995 C299.15,262.395,300.75,262.495,302.85,262.495 C307.35,262.495,312.45,261.595,315.55,260.395 C320.45,258.395,322.55,255.595,325.45,247.395 L353.35,166.995 L335.45,166.995 Z"/><path fill="#c30800" d="M384.75,143.295 L365.85,143.295 L365.85,234.995 L428.65,234.995 L428.65,219.295 L384.75,219.295 L384.75,143.295 Z"/><path fill="#c30800" d="M457.35,167.095 L439.75,167.095 L439.75,235.095 L457.35,235.095 L457.35,167.095 Z M457.35,143.295 L439.75,143.295 L439.75,158.995 L457.35,158.995 L457.35,143.295 Z"/><path fill="#c30800" d="M474.25,167.095 L474.25,235.095 L491.85,235.095 L491.85,194.295 C491.85,186.195,497.35,180.995,506.05,180.995 C513.65,180.995,517.35,185.195,517.35,193.195 L517.35,234.995 L534.95,234.995 L534.95,189.395 C534.95,174.295,526.75,165.895,512.15,165.895 C502.95,165.895,496.75,169.195,491.75,176.895 L491.75,167.095 L474.25,167.095 Z"/><path fill="#c30800" d="M581.15,168.495 L571.25,168.495 L571.25,150.195 L553.65,150.195 L553.65,168.495 L544.95,168.495 L544.95,180.195 L553.65,180.195 L553.65,221.995 C553.65,232.695,559.35,237.995,570.85,237.995 C574.85,237.995,577.75,237.595,581.05,236.595 L581.05,224.295 C579.25,224.595,578.45,224.695,577.05,224.695 C572.35,224.695,571.25,223.295,571.25,217.295 L571.25,180.295 L581.05,180.295 L581.05,168.495 Z"/><path fill="#c30800" d="M650.55,206.595 C650.65,205.095,650.65,204.495,650.65,203.595 C650.65,196.795,649.65,190.495,648.05,185.695 C643.55,173.395,632.55,165.895,618.85,165.895 C599.35,165.895,587.35,179.995,587.35,202.795 C587.35,224.595,599.15,237.895,618.45,237.895 C633.65,237.895,646.05,229.295,649.95,215.895 L632.55,215.895 C630.45,221.295,625.55,224.495,619.05,224.495 C614.05,224.495,609.95,222.395,607.45,218.595 C605.85,216.095,605.15,213.095,604.95,206.595 L650.55,206.595 Z M605.25,194.895 C606.35,184.495,610.75,179.395,618.55,179.395 C626.65,179.395,631.35,184.795,632.25,194.895 L605.25,194.895 Z"/><path fill="#c30800" d="M662.55,167.095 L662.55,235.095 L680.15,235.095 L680.15,198.995 C680.15,188.695,685.35,183.495,695.65,183.495 C697.55,183.495,698.75,183.595,701.15,183.995 L701.15,166.095 C700.15,165.995,699.75,165.995,699.05,165.995 C690.95,165.995,684.05,171.295,680.15,180.495 L680.15,167.095 L662.55,167.095 Z"/></g><g><path fill="#415266" d="M223.65,283.895 L219.65,283.895 L219.65,303.595 L223.65,303.595 L223.65,283.895 Z"/><path fill="#415266" d="M231.25,288.195 L234.75,303.495 L238.75,303.495 L242.25,288.195 L242.25,303.495 L246.35,303.495 L246.35,283.795 L240.25,283.795 L236.75,299.395 L233.15,283.795 L227.15,283.795 L227.15,303.495 L231.25,303.495 L231.25,288.195 Z"/><path fill="#415266" d="M261.35,299.595 L262.65,303.595 L266.85,303.595 L260.05,283.895 L255.55,283.895 L248.55,303.595 L252.65,303.595 L253.95,299.595 L261.35,299.595 Z M260.25,296.195 L255.15,296.195 L257.75,288.495 L260.25,296.195 Z"/><path fill="#415266" d="M285.45,292.995 L277.55,292.995 L277.55,296.395 L282.05,296.395 C281.95,297.495,281.65,298.195,281.05,298.895 C280.05,300.095,278.55,300.795,277.05,300.795 C273.75,300.795,271.45,297.895,271.45,293.895 C271.45,289.695,273.45,287.095,276.95,287.095 C278.35,287.095,279.55,287.495,280.45,288.295 C281.05,288.795,281.35,289.195,281.65,290.295 L285.45,290.295 C284.95,286.195,281.65,283.695,276.95,283.695 C271.25,283.695,267.45,287.895,267.45,293.995 C267.45,299.995,271.35,304.295,276.65,304.295 C279.35,304.295,281.05,303.395,282.55,301.095 L283.05,303.695 L285.45,303.695 L285.45,292.995 Z"/><path fill="#415266" d="M293.45,295.095 L302.85,295.095 L302.85,291.695 L293.45,291.695 L293.45,287.195 L303.65,287.195 L303.65,283.795 L289.45,283.795 L289.45,303.495 L304.15,303.495 L304.15,300.095 L293.45,300.095 L293.45,295.095 Z"/><path fill="#415266" d="M329.15,289.895 C329.15,285.795,326.35,283.595,321.45,283.595 C316.75,283.595,314.05,285.795,314.05,289.595 C314.05,292.595,315.55,294.095,319.55,294.895 L322.35,295.395 C325.05,295.895,326.05,296.695,326.05,298.295 C326.05,299.895,324.55,300.895,322.05,300.895 C319.25,300.895,317.75,299.695,317.65,297.595 L313.75,297.595 C313.95,301.795,316.85,304.095,321.95,304.095 C327.05,304.095,330.05,301.695,330.05,297.695 C330.05,294.595,328.45,292.995,324.85,292.295 L321.75,291.695 C318.85,291.095,318.05,290.595,318.05,289.095 C318.05,287.595,319.35,286.695,321.45,286.695 C323.95,286.695,325.45,287.795,325.55,289.795 L329.15,289.795 Z"/><path fill="#415266" d="M336.95,295.095 L346.35,295.095 L346.35,291.695 L336.95,291.695 L336.95,287.195 L347.15,287.195 L347.15,283.795 L332.95,283.795 L332.95,303.495 L347.65,303.495 L347.65,300.095 L336.95,300.095 L336.95,295.095 Z"/><path fill="#415266" d="M367.95,292.995 L360.05,292.995 L360.05,296.395 L364.55,296.395 C364.45,297.495,364.15,298.195,363.55,298.895 C362.55,300.095,361.05,300.795,359.55,300.795 C356.25,300.795,353.95,297.895,353.95,293.895 C353.95,289.695,355.95,287.095,359.45,287.095 C360.85,287.095,362.05,287.495,362.95,288.295 C363.55,288.795,363.85,289.195,364.15,290.295 L367.95,290.295 C367.45,286.195,364.15,283.695,359.45,283.695 C353.75,283.695,349.95,287.895,349.95,293.995 C349.95,299.995,353.85,304.295,359.15,304.295 C361.85,304.295,363.55,303.395,365.05,301.095 L365.55,303.695 L367.95,303.695 L367.95,292.995 Z"/><path fill="#415266" d="M375.55,288.195 L379.05,303.495 L383.05,303.495 L386.55,288.195 L386.55,303.495 L390.65,303.495 L390.65,283.795 L384.55,283.795 L381.05,299.395 L377.45,283.795 L371.45,283.795 L371.45,303.495 L375.55,303.495 L375.55,288.195 Z"/><path fill="#415266" d="M398.35,295.095 L407.75,295.095 L407.75,291.695 L398.35,291.695 L398.35,287.195 L408.55,287.195 L408.55,283.795 L394.35,283.795 L394.35,303.495 L409.05,303.495 L409.05,300.095 L398.35,300.095 L398.35,295.095 Z"/><path fill="#415266" d="M423.95,303.595 L428.05,303.595 L428.05,283.895 L423.95,283.895 L423.95,297.295 L416.15,283.895 L411.95,283.895 L411.95,303.595 L416.05,303.595 L416.05,289.995 L423.95,303.595 Z"/><path fill="#415266" d="M440.05,287.295 L445.75,287.295 L445.75,283.895 L429.95,283.895 L429.95,287.295 L435.95,287.295 L435.95,303.595 L440.05,303.595 L440.05,287.295 Z"/><path fill="#415266" d="M457.35,299.595 L458.65,303.595 L462.85,303.595 L456.05,283.895 L451.55,283.895 L444.55,303.595 L448.65,303.595 L449.95,299.595 L457.35,299.595 Z M456.25,296.195 L451.15,296.195 L453.75,288.495 L456.25,296.195 Z"/><path fill="#415266" d="M471.45,287.295 L477.15,287.295 L477.15,283.895 L461.35,283.895 L461.35,287.295 L467.35,287.295 L467.35,303.595 L471.45,303.595 L471.45,287.295 Z"/><path fill="#415266" d="M483.25,283.895 L479.25,283.895 L479.25,303.595 L483.25,303.595 L483.25,283.895 Z"/><path fill="#415266" d="M495.55,283.595 C492.75,283.595,490.55,284.495,488.85,286.295 C487.15,288.195,486.05,290.895,486.05,293.895 C486.05,296.795,487.05,299.595,488.85,301.495 C490.55,303.295,492.75,304.195,495.55,304.195 C498.35,304.195,500.55,303.295,502.25,301.495 C503.95,299.695,505.05,296.795,505.05,293.995 C505.05,290.895,504.05,288.195,502.25,286.295 C500.55,284.395,498.45,283.595,495.55,283.595 Z M495.55,286.995 C498.85,286.995,500.95,289.695,500.95,293.995 C500.95,297.995,498.75,300.695,495.55,300.695 C492.25,300.695,490.15,297.995,490.15,293.795 C490.15,289.695,492.35,286.995,495.55,286.995 Z"/><path fill="#415266" d="M519.85,303.595 L523.95,303.595 L523.95,283.895 L519.85,283.895 L519.85,297.295 L512.05,283.895 L507.85,283.895 L507.85,303.595 L511.95,303.595 L511.95,289.995 L519.85,303.595 Z"/><path fill="#415266" d="M539.05,295.095 L547.65,295.095 L547.65,291.695 L539.05,291.695 L539.05,287.195 L548.85,287.195 L548.85,283.795 L535.05,283.795 L535.05,303.495 L539.15,303.495 L539.15,295.095 Z"/><path fill="#415266" d="M555.25,283.895 L551.25,283.895 L551.25,303.595 L555.25,303.595 L555.25,283.895 Z"/><path fill="#415266" d="M563.25,283.895 L559.15,283.895 L559.15,303.595 L572.65,303.595 L572.65,300.195 L563.25,300.195 L563.25,283.895 Z"/><path fill="#415266" d="M581.35,287.295 L587.05,287.295 L587.05,283.895 L571.25,283.895 L571.25,287.295 L577.25,287.295 L577.25,303.595 L581.35,303.595 L581.35,287.295 Z"/><path fill="#415266" d="M593.35,295.095 L602.75,295.095 L602.75,291.695 L593.35,291.695 L593.35,287.195 L603.55,287.195 L603.55,283.795 L589.35,283.795 L589.35,303.495 L604.05,303.495 L604.05,300.095 L593.35,300.095 L593.35,295.095 Z"/><path fill="#415266" d="M611.45,295.795 L616.05,295.795 C617.75,295.795,618.55,296.495,618.55,298.095 L618.55,298.895 C618.55,299.395,618.55,299.895,618.55,300.195 C618.55,302.095,618.65,302.595,619.15,303.595 L623.45,303.595 L623.45,302.895 C622.85,302.595,622.55,302.095,622.55,301.295 C622.45,295.495,622.35,295.195,619.85,294.095 C622.05,293.195,623.15,291.695,623.15,289.195 C623.15,287.595,622.65,286.195,621.65,285.195 C620.75,284.295,619.55,283.895,617.85,283.895 L607.35,283.895 L607.35,303.595 L611.45,303.595 L611.45,295.795 Z M611.45,292.395 L611.45,287.295 L616.35,287.295 C617.55,287.295,617.95,287.395,618.45,287.795 C618.95,288.195,619.15,288.895,619.15,289.795 C619.15,290.695,618.95,291.495,618.45,291.895 C617.95,292.295,617.45,292.395,616.35,292.395 L611.45,292.395 Z"/></g><path d="M128.35,240.295 C128.35,240.295,128.35,240.295,128.35,240.295 C128.35,232.595,124.95,225.895,119.55,221.395 C124.95,225.995,128.35,232.795,128.35,240.295 Z"/><path fill="#415266" d="M87.35,182.295 C78.75,182.295,71.85,189.295,71.85,197.995 C71.85,206.695,78.75,213.695,87.35,213.695 C95.95,213.695,102.85,206.695,102.85,197.995 C102.85,189.295,95.95,182.295,87.35,182.295 Z"/><path fill="#415266" d="M129.25,190.595 C139.45,190.595,147.65,182.295,147.65,171.995 C147.65,161.695,139.35,153.395,129.25,153.395 C119.05,153.395,110.85,161.695,110.85,171.995 C110.75,182.195,119.05,190.595,129.25,190.595 Z"/><path fill="#415266" d="M69.55,184.395 C76.55,184.395,82.15,178.695,82.15,171.695 C82.15,164.695,76.55,158.995,69.55,158.995 C62.55,158.995,56.95,164.695,56.95,171.695 C56.95,178.695,62.55,184.395,69.55,184.395 Z"/><path fill="#415266" fill-opacity="0.611765" d="M117.05,215.695 C124.25,215.695,130.05,209.795,130.05,202.595 C130.05,195.395,124.25,189.495,117.05,189.495 C109.85,189.495,104.05,195.395,104.05,202.595 C104.05,209.895,109.85,215.695,117.05,215.695 Z"/><path fill="#415266" d="M141.65,191.195 C137.45,191.195,133.95,194.695,133.95,198.995 C133.95,203.295,137.35,206.795,141.65,206.795 C145.85,206.795,149.35,203.295,149.35,198.995 C149.35,194.595,145.85,191.195,141.65,191.195 Z"/><path fill="#415266" fill-opacity="0.858824" d="M109.65,178.095 C109.65,173.995,106.35,170.595,102.25,170.595 C98.15,170.595,94.85,173.895,94.85,178.095 C94.85,182.195,98.15,185.595,102.25,185.595 C106.35,185.595,109.65,182.295,109.65,178.095 Z"/><path fill="#415266" d="M132.95,229.795 C137.95,229.795,141.95,225.695,141.95,220.695 C141.95,215.695,137.95,211.595,132.95,211.595 C127.95,211.595,123.95,215.695,123.95,220.695 C123.95,225.795,128.05,229.795,132.95,229.795 Z"/><path fill="#415266" d="M130.15,247.395 C130.15,255.095,136.35,261.395,143.95,261.395 C151.55,261.395,157.75,255.095,157.75,247.395 C157.75,239.695,151.55,233.395,143.95,233.395 C136.35,233.395,130.15,239.695,130.15,247.395 Z"/><path fill="#415266" d="M128.75,258.295 C124.25,258.295,120.65,261.995,120.65,266.495 C120.65,270.995,124.25,274.695,128.75,274.695 C133.25,274.695,136.85,270.995,136.85,266.495 C136.85,261.895,133.25,258.295,128.75,258.295 Z"/><path fill="#415266" fill-opacity="0.611765" d="M71.35,217.595 C66.75,217.595,63.05,221.295,63.05,225.995 C63.05,230.595,66.75,234.395,71.35,234.395 C75.95,234.395,79.65,230.695,79.65,225.995 C79.65,221.295,75.95,217.595,71.35,217.595 Z"/><path fill="#415266" d="M72.45,208.395 C72.45,203.995,68.95,200.495,64.65,200.495 C60.35,200.495,56.85,203.995,56.85,208.395 C56.85,212.795,60.35,216.295,64.65,216.295 C68.95,216.295,72.45,212.695,72.45,208.395 Z"/><path fill="#415266" d="M65.25,186.795 C62.75,186.795,60.75,188.895,60.75,191.395 C60.75,193.895,62.75,195.995,65.25,195.995 C67.75,195.995,69.75,193.895,69.75,191.395 C69.85,188.795,67.75,186.795,65.25,186.795 Z"/><path fill="#415266" d="M47.75,190.095 C42.35,190.095,38.05,194.495,38.05,199.895 C38.05,205.295,42.45,209.695,47.75,209.695 C53.15,209.695,57.45,205.295,57.45,199.895 C57.55,194.495,53.15,190.095,47.75,190.095 Z"/><path fill="#415266" d="M61.45,224.695 C61.45,217.495,55.65,211.695,48.55,211.695 C42.35,211.695,37.15,216.095,35.95,221.995 C36.95,226.395,38.45,230.595,40.15,234.595 C42.45,236.595,45.35,237.695,48.55,237.695 C55.65,237.695,61.45,231.895,61.45,224.695 Z"/><path fill="#415266" d="M55.75,176.695 C55.75,170.495,51.75,165.295,46.25,163.595 C41.25,171.095,37.65,179.695,35.65,188.795 C37.55,189.895,39.85,190.495,42.15,190.495 C49.65,190.395,55.75,184.295,55.75,176.695 Z"/><path fill="#415266" d="M76.35,141.495 C76.35,140.195,76.15,138.895,75.85,137.695 C67.45,141.695,59.85,147.395,53.55,154.195 C55.85,155.695,58.55,156.495,61.45,156.495 C69.75,156.495,76.35,149.795,76.35,141.495 Z"/><path fill="#415266" fill-opacity="0.611765" d="M95.55,170.995 C104.65,170.995,112.05,163.495,112.05,154.295 C112.05,145.095,104.65,137.595,95.55,137.595 C86.45,137.595,79.05,145.095,79.05,154.295 C79.05,163.495,86.45,170.995,95.55,170.995 Z"/><path fill="#415266" d="M122.15,151.895 C129.15,151.895,134.85,146.195,134.85,139.095 C134.85,137.995,134.65,136.895,134.45,135.795 C127.65,133.095,120.25,131.295,112.65,130.795 C110.75,132.995,109.55,135.895,109.55,139.095 C109.45,146.095,115.15,151.895,122.15,151.895 Z"/><path fill="#415266" d="M147.75,154.895 C151.55,154.895,154.75,152.795,156.55,149.695 C151.65,145.195,146.05,141.295,140.05,138.295 C138.65,140.095,137.75,142.295,137.75,144.795 C137.75,150.395,142.25,154.895,147.75,154.895 Z"/><path fill="#415266" fill-opacity="0.611765" d="M178.95,199.995 C179.45,199.995,179.95,199.995,180.45,199.995 C179.25,181.095,171.05,164.095,158.45,151.595 C153.55,156.695,150.55,163.695,150.55,171.395 C150.65,187.195,163.35,199.995,178.95,199.995 Z"/><path fill="#415266" d="M128.35,240.395 C128.35,240.395,128.35,240.395,128.35,240.395 C128.35,232.695,124.85,225.995,119.55,221.495 C115.35,217.995,109.95,215.895,104.05,215.895 C90.65,215.895,79.75,226.895,79.75,240.395 C79.75,253.995,90.65,264.895,104.05,264.895 C117.45,264.995,128.35,253.995,128.35,240.395 Z"/><path fill="#415266" d="M78.75,251.795 C78.75,242.895,71.55,235.595,62.75,235.595 C55.45,235.595,49.25,240.495,47.35,247.295 C52.85,255.195,59.85,261.895,67.85,267.095 C74.15,264.895,78.75,258.895,78.75,251.795 Z"/><path fill="#415266" d="M91.35,267.695 C91.35,263.495,87.95,259.995,83.75,259.995 C79.55,259.995,76.15,263.395,76.15,267.695 C76.15,269.495,76.75,271.095,77.75,272.395 C80.15,273.495,82.75,274.495,85.25,275.295 C88.65,274.595,91.35,271.495,91.35,267.695 Z"/><path fill="#415266" d="M161.85,199.195 C151.55,199.195,143.15,207.695,143.15,218.095 C143.15,228.595,151.55,236.995,161.85,236.995 C167.45,236.995,172.55,234.495,175.95,230.495 C177.95,225.095,179.35,219.495,180.05,213.595 C178.05,205.295,170.75,199.195,161.85,199.195 Z"/><path fill="#415266" fill-opacity="0.611765" d="M106.15,266.495 C99.75,266.495,94.55,271.195,93.55,277.395 C97.95,278.295,102.55,278.695,107.25,278.695 C111.15,278.695,115.05,278.395,118.85,277.795 C118.05,271.395,112.65,266.495,106.15,266.495 Z"/></g></svg>
